<svg height="512" viewBox="0 0 512 512" width="512" xmlns="http://www.w3.org/2000/svg"><g id="filled_outline" data-name="filled outline"><path d="m229.24 131.578c-9.289 41.931-25.623 102.928-25.623 102.928l56.586-106.5a20.123 20.123 0 0 1 25.658-10.358 20.191 20.191 0 0 1 11.161 26.977c-17.187 38.81-58.78 115.517-58.78 115.517l76.073-88.291a16.631 16.631 0 0 1 24.23-1.031 16.634 16.634 0 0 1 1.16 22.515c-25.733 31.014-64.234 81.433-64.234 81.433l62.85-46.714a16.567 16.567 0 0 1 23.989 4.608 16.559 16.559 0 0 1 -3.2 21.158c-27.522 24.053-99.278 87.005-99.278 87.005l-7.807 17.508a73.535 73.535 0 0 1 -44.867 40.125l-29.4 58.992-100.71-47.219 34.452-81.267-20-62.864-18.514-69.184a16 16 0 0 1 7.053-17.753l.57-.352a22 22 0 0 1 32.336 11.5l5.738 16.518a67.591 67.591 0 0 0 35.684 39.271l39.424-124.068a18.374 18.374 0 0 1 22.243-12.19 18.375 18.375 0 0 1 13.206 21.736z" fill="#f6bb92"/><path d="m189.81 336.76-7.76 15.31a8 8 0 0 1 -14.27-7.23l7.75-15.31a56.17 56.17 0 0 0 -18.03-71.51l-11.77-8.19a8.01 8.01 0 0 1 -2.54-10.22 67.051 67.051 0 0 0 11.18 6.49l2.54-7.99 9.73 6.78a72.189 72.189 0 0 1 23.17 91.87z" fill="#f6bb92"/><path d="m154.37 246.1 2.54-7.99 9.73 6.78a72.189 72.189 0 0 1 23.17 91.87l-7.76 15.31a8 8 0 0 1 -14.27-7.23l7.75-15.31a56.17 56.17 0 0 0 -18.03-71.51l-5.305-3.692z" fill="#daa581"/><circle cx="278.754" cy="455.068" fill="#eaeae8" r="28.062"/><path d="m306.32 460.35a36.536 36.536 0 0 1 -26.27-33.31 28.051 28.051 0 0 1 26.27 33.31z" fill="#cbcbcb"/><g fill="#eaeae8"><circle cx="466.403" cy="345.881" r="24"/><circle cx="413.252" cy="83.954" r="24"/><circle cx="254.922" cy="58.472" r="24"/><circle cx="72" cy="110.752" r="24"/><path d="m89.845 94.7c-.61.03-1.23.05-1.85.05a31.9 31.9 0 0 1 -20.64-7.54 22.892 22.892 0 0 1 4.64-.46 23.957 23.957 0 0 1 17.85 7.95z"/><circle cx="88" cy="62.752" r="32"/></g><path d="m89.845 94.7c-.61.03-1.23.05-1.85.05a31.9 31.9 0 0 1 -20.64-7.54 22.892 22.892 0 0 1 4.64-.46 23.957 23.957 0 0 1 17.85 7.95z" fill="#cbcbcb"/><path d="m370.148 152.253-65.938-5.469a100 100 0 0 0 -61.972 15.3l-28.9 18.4a34.206 34.206 0 0 0 -12.416 34.442l-8.693 6.606a20.409 20.409 0 0 0 -7.372 21.5l2.508 9.417-2.935 2.5a20.41 20.41 0 0 0 -5.834 22.764l3.522 9.285a20.294 20.294 0 0 0 -7.062 27.1l1.846 3.326a20.294 20.294 0 0 0 28.38 7.435l73.514-45.24a28 28 0 0 1 25.781-1.856l12.3 5.314-42.397 29.323a28 28 0 0 0 -1.028 39.572l.872.918a16 16 0 0 0 19.877 2.685l30.506-18.418 47.125-14.491a58.437 58.437 0 0 0 30.153-21.58l22.223-30.69 47.792.65-2.35-117.226z" fill="#fdc9a6"/><path d="m247.89 194.91-63.38 39.12a20.441 20.441 0 0 1 7.72-12.49l8.69-6.61a34.123 34.123 0 0 1 -.76-9.36l39.32-24.28a8 8 0 0 1 8.41 13.62z" fill="#fdc9a6"/><path d="m253.43 220.43-76.05 48.05a20.314 20.314 0 0 1 7.05-13.52l2.93-2.5-2.1-7.88 59.62-37.68a8 8 0 1 1 8.55 13.53z" fill="#fdc9a6"/><path d="m256.96 248.22-84.38 54.3a20.236 20.236 0 0 1 9.53-15.51l-2.94-7.76 69.13-44.48a8 8 0 1 1 8.66 13.45z" fill="#fdc9a6"/><circle cx="316.543" cy="425.257" fill="#eaeae8" r="36.543"/><path d="m200.92 214.93a34.123 34.123 0 0 1 -.76-9.36l39.32-24.28a8 8 0 0 1 11.01 2.61z" fill="#eab28b"/><path d="m187.36 252.46-2.1-7.88 59.62-37.68a8.008 8.008 0 0 1 11.04 2.49z" fill="#eab28b"/><path d="m182.11 287.01-2.94-7.76 69.13-44.48a8 8 0 0 1 11.06 2.4z" fill="#eab28b"/><path d="m466.4 313.882a32 32 0 1 0 32 32 32.036 32.036 0 0 0 -32-32zm0 48a16 16 0 1 1 16-16 16.019 16.019 0 0 1 -16 16z"/><path d="m445.252 83.954a32 32 0 1 0 -32 32 32.037 32.037 0 0 0 32-32zm-48 0a16 16 0 1 1 16 16 16.019 16.019 0 0 1 -16-16z"/><path d="m254.921 90.472a32 32 0 1 0 -32-32 32.037 32.037 0 0 0 32 32zm0-48a16 16 0 1 1 -16 16 16.017 16.017 0 0 1 16-16z"/><path d="m39.5 110.931a32 32 0 1 0 62.19-10.609 40.03 40.03 0 1 0 -47.951-15.983 32.176 32.176 0 0 0 -14.239 26.592zm48-72a24 24 0 1 1 -24 24 24.027 24.027 0 0 1 24-24zm-22.2 57.254a39.746 39.746 0 0 0 20.013 6.683 15.852 15.852 0 0 1 2.188 8.063 16 16 0 1 1 -22.201-14.746z"/><path d="m408.464 305.773 19.788-27.325 43.639.593a8 8 0 0 0 8.109-8.159l-2.351-117.223a8 8 0 0 0 -7.873-7.839l-99.233-1.562-63.894-5.3a28.21 28.21 0 0 0 -53.612-14.515l-17.09 32.167-5.058 3.22c2.384-9.9 4.446-18.775 6.162-26.521a26.374 26.374 0 0 0 -50.883-13.7l-36.468 114.767a59.924 59.924 0 0 1 -23.459-30.168l-5.741-16.519a30 30 0 0 0 -44.089-15.689l-.574.354a23.853 23.853 0 0 0 -10.579 26.628l18.516 69.184c.032.12.067.238.1.356l19.1 60.044-33.3 78.541a8 8 0 0 0 3.97 10.366l100.716 47.218a7.993 7.993 0 0 0 10.556-3.674l27.933-56.055a81.616 81.616 0 0 0 46.477-43.373l4.184-9.382a36.188 36.188 0 0 0 4.129 5.265l.873.92a24.136 24.136 0 0 0 29.816 4.027l29.672-17.909 46.184-14.2a66.826 66.826 0 0 0 34.28-24.537zm-141.2-174.014c.074-.141.144-.282.21-.426a12.2 12.2 0 0 1 23.071 7.274 109.013 109.013 0 0 0 -30.032 5.858zm-65.852-7.3a10.374 10.374 0 0 1 20.013 5.393c-2.58 11.646-5.96 25.9-10.049 42.4l-2.342 1.491c-.209.133-.413.277-.609.429a42.421 42.421 0 0 0 -16.139 37.269l-4.905 3.729a28.314 28.314 0 0 0 -10.259 29.93l1.218 4.573a28.275 28.275 0 0 0 -2.574 2.753 72.1 72.1 0 0 0 -9.131-7.535l-2.857-1.988zm67.558 182.141a35.758 35.758 0 0 0 -9.731 15.971c-1.155 2.319-14.518 32.506-14.518 32.506a65.591 65.591 0 0 1 -39.985 35.76 7.994 7.994 0 0 0 -4.736 4.052l-25.914 52-86.665-40.631 31.444-74.172a8 8 0 0 0 .259-5.547l-19.942-62.687-18.468-69a7.948 7.948 0 0 1 3.522-8.874l.575-.354a14 14 0 0 1 20.577 7.32l5.737 16.519a75.958 75.958 0 0 0 39.16 43.548l7.214 5.018a56.034 56.034 0 0 1 11.829 11.085 28.278 28.278 0 0 0 1.784 11.453l1.475 3.888a28.261 28.261 0 0 0 -4.529 33.545l1.846 3.326a28.351 28.351 0 0 0 5.979 7.468c-.119.244-8.105 16.049-8.105 16.049a8 8 0 1 0 14.274 7.23s8.129-16.11 8.321-16.506a28.008 28.008 0 0 0 19.1-3.876l73.514-45.239a20.033 20.033 0 0 1 17.445-1.717l-30.5 21.083a8.1 8.1 0 0 0 -.962.782zm53.385 22.909a8 8 0 0 0 -1.784.8l-30.505 18.419a8.047 8.047 0 0 1 -9.938-1.341l-.872-.92a20.026 20.026 0 0 1 .327-27.867l41.838-28.921a8 8 0 0 0 -1.376-13.925l-12.3-5.314a36.029 36.029 0 0 0 -33.147 2.387l-73.515 45.24a12.294 12.294 0 0 1 -17.192-4.5l-1.846-3.327a12.277 12.277 0 0 1 4.278-16.418c.028-.017.054-.038.082-.056s.031-.015.046-.025l70.514-45.515a8 8 0 0 0 -8.676-13.444l-62.2 40.152-.014-.037a12.439 12.439 0 0 1 3.547-13.841l2.408-2.055 61.384-38.553a8 8 0 1 0 -8.51-13.548l-52.551 33a12.361 12.361 0 0 1 4.716-11.99l50.873-33.033a8 8 0 1 0 -8.509-13.549l-30.306 19.034a26.253 26.253 0 0 1 8.842-13.334l28.569-18.189a92.513 92.513 0 0 1 57.013-14.079l65.939 5.47c.178.014.357.023.535.026l91.784 1.445 2.03 101.234-39.519-.537h-.109a8 8 0 0 0 -6.479 3.307l-22.224 30.69a50.739 50.739 0 0 1 -26.025 18.626z"/><path d="m272.375 419.574a36.056 36.056 0 1 0 31.879 60.993 36.207 36.207 0 0 0 7.529-11.025 44.542 44.542 0 1 0 -39.408-49.968zm20.565 49.68a20.062 20.062 0 1 1 -19.674-33.478 44.711 44.711 0 0 0 22.984 29.113 20.03 20.03 0 0 1 -3.31 4.365zm52.146-44a28.543 28.543 0 1 1 -28.543-28.543 28.576 28.576 0 0 1 28.543 28.546z"/></g></svg>