<svg height="512" viewBox="0 0 512 512" width="512" xmlns="http://www.w3.org/2000/svg"><g id="filled_outline" data-name="filled outline"><path d="m328 184v96a16 16 0 0 0 16 16h16v-112z" fill="#f5d3bd"/><path d="m488 184v96a16 16 0 0 1 -16 16h-16v-112z" fill="#f5d3bd"/><path d="m360 264h96v184h-96z" fill="#75c2d4"/><path d="m408 456a8 8 0 0 0 8-8v-136a7.994 7.994 0 0 0 -.845-3.578l-8-16a8 8 0 0 0 -14.31 7.156l7.155 14.311v134.111a8 8 0 0 0 8 8z" fill="#43aece"/><path d="m336.099 464 23.901-16h96l24 16v24h-144z" fill="#cbcbcb"/><path d="m400 448h16v40h-16z" fill="#a8a8a8" transform="matrix(-1 0 0 -1 816 936)"/><path d="m424 48h-56a24 24 0 0 1 24-24h8a24 24 0 0 1 24 24z" fill="#683b0d"/><path d="m360 128h96v136h-96z" fill="#e82f3e"/><path d="m360 128h-12a20 20 0 0 0 -20 20v36h32z" fill="#d32b39"/><path d="m456 128h12a20 20 0 0 1 20 20v36h-32z" fill="#d32b39"/><path d="m424 128v-80h-48l-16 24 8 16v16h24v24h-8l24 32 24-32z" fill="#f5d3bd"/><path d="m88 48h46a10 10 0 0 0 10-10v-14h-42a14 14 0 0 0 -14 14z" fill="#fbb540"/><path d="m184 184v96a16 16 0 0 1 -16 16h-16v-112z" fill="#fdc9a6"/><path d="m164 128h-120a20 20 0 0 0 -20 20v36h32v80h96v-80h32v-36a20 20 0 0 0 -20-20z" fill="#02a437"/><path d="m24 184v96a16 16 0 0 0 16 16h16v-112z" fill="#fdc9a6"/><path d="m56 264h96v184h-96z" fill="#683b0d"/><path d="m104 456a8 8 0 0 1 -8-8v-136a7.994 7.994 0 0 1 .845-3.578l8-16a8 8 0 0 1 14.31 7.156l-7.155 14.311v134.111a8 8 0 0 1 -8 8z" fill="#4c2b09"/><path d="m136 48h-48v80h-8v8a24 24 0 0 0 48 0v-8h-8v-24h24v-16l8-16z" fill="#fdc9a6"/><path d="m333.657 322.343-16-16a8 8 0 0 0 -11.314 11.314l2.343 2.343h-105.372l2.343-2.343a8 8 0 1 0 -11.314-11.314l-16 16a8 8 0 0 0 0 11.314l16 16a8 8 0 1 0 11.314-11.314l-2.343-2.343h105.372l-2.343 2.343a8 8 0 0 0 11.314 11.314l16-16a8 8 0 0 0 0-11.314z" fill="#0bafea"/><path d="m317.657 98.343-16-16a8 8 0 0 0 -11.314 11.314l2.343 2.343h-73.372l2.343-2.343a8 8 0 0 0 -11.314-11.314l-16 16a8 8 0 0 0 0 11.314l16 16a8 8 0 1 0 11.314-11.314l-2.343-2.343h73.372l-2.343 2.343a8 8 0 0 0 11.314 11.314l16-16a8 8 0 0 0 0-11.314z" fill="#0bafea"/><path d="m175.901 464-23.901-16h-96l-24 16v24h144z" fill="#cbcbcb"/><path d="m96 448h16v40h-16z" fill="#a8a8a8"/><path d="m472 304a24.028 24.028 0 0 0 24-24v-132a28.032 28.032 0 0 0 -28-28h-36v-72a32.036 32.036 0 0 0 -32-32h-8a32.036 32.036 0 0 0 -32 32 7.971 7.971 0 0 0 2.512 5.81l-9.168 13.752a8 8 0 0 0 -.5 8.016l7.156 14.311v14.111a8 8 0 0 0 8 8h16v8h-36a28.032 28.032 0 0 0 -28 28v132a24.028 24.028 0 0 0 24 24h8v139.728l-20.352 13.624a8 8 0 0 0 -3.549 6.615l-.1 24a8 8 0 0 0 8.001 8.033h144a8 8 0 0 0 8-8v-24a8 8 0 0 0 -3.562-6.656l-20.438-13.625v-139.719zm-8-168h4a12.013 12.013 0 0 1 12 12v28h-16zm0 56h16v88a8.009 8.009 0 0 1 -8 8h-8zm-72-160h8a16.011 16.011 0 0 1 13.853 8h-35.706a16.011 16.011 0 0 1 13.853-8zm-16 64v-8a7.994 7.994 0 0 0 -.845-3.578l-5.924-11.847 11.05-16.575h35.719v72a7.97 7.97 0 0 0 2.017 5.311l-10.017 13.356-10.017-13.356a7.97 7.97 0 0 0 2.017-5.311v-24a8 8 0 0 0 -8-8zm-8 40h12l21.6 28.8a8 8 0 0 0 12.8 0l21.6-28.8h12v120h-80zm-32 12a12.013 12.013 0 0 1 12-12h4v40h-16zm8 140a8.009 8.009 0 0 1 -8-8v-88h16v96zm56 192h-55.967l.048-11.717 18.35-12.283h37.569zm7.155-187.578a8 8 0 0 0 -14.31 7.156l7.155 14.311v126.111h-32v-168h80v168h-32v-128a7.994 7.994 0 0 0 -.845-3.578zm64.845 175.859v11.719h-56v-24h37.578z"/><path d="m40 304h8v139.719l-20.438 13.625a8 8 0 0 0 -3.562 6.656v24a8 8 0 0 0 8 8h144a8 8 0 0 0 8-8.033l-.1-24a8 8 0 0 0 -3.549-6.615l-20.351-13.624v-139.728h8a24.028 24.028 0 0 0 24-24v-132a28.032 28.032 0 0 0 -28-28h-36v-8h16a8 8 0 0 0 8-8v-14.111l7.155-14.311a8 8 0 0 0 -.5-8.016l-11.525-17.289a17.913 17.913 0 0 0 4.87-12.273v-14a8 8 0 0 0 -8-8h-42a22.025 22.025 0 0 0 -22 22v82c-.2 0-.406.016-.607.031-.2-.015-.4-.031-.607-.031h-34.786a28.032 28.032 0 0 0 -28 28v132a24.028 24.028 0 0 0 24 24zm120-168h4a12.013 12.013 0 0 1 12 12v28h-16zm0 56h16v88a8.009 8.009 0 0 1 -8 8h-8zm7.919 276.283.048 11.717h-55.967v-24h37.569zm-71.919-430.283a6.006 6.006 0 0 1 6-6h34v6a2 2 0 0 1 -2 2h-38zm0 90v-72h35.719l11.05 16.575-5.924 11.847a7.994 7.994 0 0 0 -.845 3.578v8h-16a8 8 0 0 0 -8 8v24a8 8 0 0 0 8 8 16 16 0 0 1 -32 0 8 8 0 0 0 8-8zm-32 56v-48h8a32 32 0 0 0 64 0h8v120h-80zm0 88h80v168h-32v-126.111l7.155-14.311a8 8 0 0 0 -14.31-7.156l-8 16a7.994 7.994 0 0 0 -.845 3.578v128h-32zm-5.578 184h37.578v24h-56v-11.719zm-26.422-308a12.013 12.013 0 0 1 12-12h4v40h-16zm0 44h16v96h-8a8.009 8.009 0 0 1 -8-8z"/><path d="m333.657 322.343-16-16a8 8 0 0 0 -11.314 11.314l2.343 2.343h-105.372l2.343-2.343a8 8 0 1 0 -11.314-11.314l-16 16a8 8 0 0 0 0 11.314l16 16a8 8 0 1 0 11.314-11.314l-2.343-2.343h105.372l-2.343 2.343a8 8 0 0 0 11.314 11.314l16-16a8 8 0 0 0 0-11.314z"/><path d="m210.343 125.657a8 8 0 1 0 11.314-11.314l-2.343-2.343h73.372l-2.343 2.343a8 8 0 0 0 11.314 11.314l16-16a8 8 0 0 0 0-11.314l-16-16a8 8 0 0 0 -11.314 11.314l2.343 2.343h-73.372l2.343-2.343a8 8 0 0 0 -11.314-11.314l-16 16a8 8 0 0 0 0 11.314z"/></g></svg>